HIERARCHY
ROOT Hips
{
	OFFSET 0.000000 1.471914 24.280096
	CHANNELS 6 Xposition Yposition Zposition Xrotation Yrotation Zrotation
	JOINT Spine
	{
		OFFSET 0.000000 0.900110 1.860670
		CHANNELS 6 Xposition Yposition Zposition Xrotation Yrotation Zrotation
		JOINT Spine1
		{
			OFFSET 0.000000 0.400320 2.270309
			CHANNELS 6 Xposition Yposition Zposition Xrotation Yrotation Zrotation
			JOINT Spine2
			{
				OFFSET 0.000000 0.200920 2.296560
				CHANNELS 6 Xposition Yposition Zposition Xrotation Yrotation Zrotation
				JOINT Spine3
				{
					OFFSET 0.000000 0.000000 2.305330
					CHANNELS 6 Xposition Yposition Zposition Xrotation Yrotation Zrotation
					JOINT Neck
					{
						OFFSET 0.000000 -0.864490 6.051487
						CHANNELS 6 Xposition Yposition Zposition Xrotation Yrotation Zrotation
						JOINT Head
						{
							OFFSET 0.000000 -0.550429 3.121674
							CHANNELS 6 Xposition Yposition Zposition Xrotation Yrotation Zrotation
							End Site
							{
								OFFSET 0.000000 0.000000 3.731750
							}
						}
					}
					JOINT RightShoulder
					{
						OFFSET -0.788280 -1.313800 4.256718
						CHANNELS 6 Xposition Yposition Zposition Xrotation Yrotation Zrotation
						JOINT RightArm
						{
							OFFSET -3.915130 0.000000 0.000000
							CHANNELS 6 Xposition Yposition Zposition Xrotation Yrotation Zrotation
							JOINT RightForeArm
							{
								OFFSET -6.914910 0.000000 0.000000
								CHANNELS 6 Xposition Yposition Zposition Xrotation Yrotation Zrotation
								JOINT RightHand
								{
									OFFSET -6.096219 0.000000 0.000000
									CHANNELS 6 Xposition Yposition Zposition Xrotation Yrotation Zrotation
									JOINT RightHandEnd
									{
										OFFSET -1.749950 0.000000 0.000000
										CHANNELS 6 Xposition Yposition Zposition Xrotation Yrotation Zrotation
										End Site
										{
											OFFSET -1.749950 0.000000 0.000000
										}
									}
									JOINT RightHandThumb1
									{
										OFFSET -0.699980 -1.166630 -0.466648
										CHANNELS 6 Xposition Yposition Zposition Xrotation Yrotation Zrotation
										End Site
										{
											OFFSET -1.690319 -0.452920 0.000000
										}
									}
								}
							}
						}
					}
					JOINT LeftShoulder
					{
						OFFSET 0.788280 -1.313800 4.256718
						CHANNELS 6 Xposition Yposition Zposition Xrotation Yrotation Zrotation
						JOINT LeftArm
						{
							OFFSET 3.915130 0.000000 0.000000
							CHANNELS 6 Xposition Yposition Zposition Xrotation Yrotation Zrotation
							JOINT LeftForeArm
							{
								OFFSET 6.914910 0.000000 0.000000
								CHANNELS 6 Xposition Yposition Zposition Xrotation Yrotation Zrotation
								JOINT LeftHand
								{
									OFFSET 6.096219 0.000000 0.000000
									CHANNELS 6 Xposition Yposition Zposition Xrotation Yrotation Zrotation
									JOINT LeftHandEnd
									{
										OFFSET 1.749950 0.000000 0.000000
										CHANNELS 6 Xposition Yposition Zposition Xrotation Yrotation Zrotation
										End Site
										{
											OFFSET 1.749950 0.000000 0.000000
										}
									}
									JOINT LeftHandThumb1
									{
										OFFSET 0.699980 -1.166630 -0.466648
										CHANNELS 6 Xposition Yposition Zposition Xrotation Yrotation Zrotation
										End Site
										{
											OFFSET 1.690319 -0.452920 0.000000
										}
									}
								}
							}
						}
					}
				}
			}
		}
	}
	JOINT RightUpLeg
	{
		OFFSET -2.338570 -0.252550 -0.551512
		CHANNELS 6 Xposition Yposition Zposition Xrotation Yrotation Zrotation
		JOINT RightLeg
		{
			OFFSET 0.000000 0.000000 -10.744959
			CHANNELS 6 Xposition Yposition Zposition Xrotation Yrotation Zrotation
			JOINT RightFoot
			{
				OFFSET 0.000000 -0.000001 -10.930849
				CHANNELS 6 Xposition Yposition Zposition Xrotation Yrotation Zrotation
				JOINT RightToeBase
				{
					OFFSET 0.000000 -4.087269 -1.487650
					CHANNELS 6 Xposition Yposition Zposition Xrotation Yrotation Zrotation
					End Site
					{
						OFFSET 0.000000 -1.891870 0.000000
					}
				}
			}
		}
	}
	JOINT LeftUpLeg
	{
		OFFSET 2.338570 -0.252550 -0.551512
		CHANNELS 6 Xposition Yposition Zposition Xrotation Yrotation Zrotation
		JOINT LeftLeg
		{
			OFFSET 0.000000 0.000000 -10.744959
			CHANNELS 6 Xposition Yposition Zposition Xrotation Yrotation Zrotation
			JOINT LeftFoot
			{
				OFFSET 0.000000 -0.000001 -10.930849
				CHANNELS 6 Xposition Yposition Zposition Xrotation Yrotation Zrotation
				JOINT LeftToeBase
				{
					OFFSET 0.000000 -4.087269 -1.487650
					CHANNELS 6 Xposition Yposition Zposition Xrotation Yrotation Zrotation
					End Site
					{
						OFFSET 0.000000 -1.891870 0.000000
					}
				}
			}
		}
	}
}
MOTION
Frames: 6
Frame Time: 0.041667
-0.000032 26.560303 40.144997 -17.269211 3.278736 -12.621480 -0.000016 0.900100 1.860700 29.285727 -0.311696 -1.840136 0.000000 0.400277 2.270317 -0.000004 -0.000001 0.000006 0.000018 0.200875 2.296539 0.000002 -0.000000 0.000001 0.000026 -0.000003 2.305325 -0.000052 0.000000 0.771877 -0.000009 -0.864472 6.051470 1.359964 -6.328958 179.574170 0.000014 -0.550449 3.121723 -0.000002 0.000001 -0.000003 -0.788280 -1.313745 4.256765 -126.197444 58.043788 -52.523414 -3.915075 -0.000000 -0.000034 -0.000001 -0.000000 0.000000 -6.914885 0.000003 0.000004 0.000004 0.000005 -21.134422 -6.096204 -0.000005 0.000014 -0.000082 -0.000031 -0.000032 -1.749932 -0.000018 0.000023 -0.000001 0.000002 -0.000000 -0.699985 -1.166627 -0.466656 0.000005 0.000000 0.000002 0.788263 -1.313782 4.256734 -176.989872 -63.227129 3.711059 3.915167 0.000028 -0.000031 -0.000003 -0.000001 0.000005 6.914902 -0.000030 -0.000008 0.000008 0.000006 18.685386 6.096216 0.000070 -0.000003 -0.000032 0.000030 -0.000018 1.749933 0.000003 0.000020 -0.000004 -0.000003 -0.000002 0.699948 -1.166606 -0.466635 0.000021 -0.000011 -0.000023 -2.338572 -0.252537 -0.551514 29.487754 -6.308406 -1.871211 0.000016 -0.000014 -10.744964 8.717365 3.031911 -1.451889 -0.000021 0.000062 -10.930835 0.000020 -0.000007 -0.000001 0.000002 -4.087271 -1.487640 0.000004 0.000001 -0.000003 2.338574 -0.252533 -0.551455 25.540669 0.841130 -1.622347 -0.000006 -0.000034 -10.744919 8.775868 0.727771 -0.390606 -0.000012 0.000002 -10.930878 0.000055 -0.000003 -0.000000 -0.000013 -4.087243 -1.487653 0.000001 -0.000000 -0.000001 
-0.000021 26.560301 40.145020 -17.097862 3.019262 -12.596688 -0.000017 0.900100 1.860698 28.798635 -0.138501 -1.981466 0.000001 0.400276 2.270321 -0.000004 -0.000002 0.000003 0.000018 0.200873 2.296538 0.000001 -0.000000 0.000001 0.000026 -0.000001 2.305314 -0.000051 0.000001 0.817635 -0.000010 -0.864471 6.051468 0.670435 -5.858313 179.029626 0.000014 -0.550449 3.121727 -0.000001 -0.000000 -0.000004 -0.788276 -1.313739 4.256764 -127.987404 57.612045 -49.949771 -3.915078 -0.000004 -0.000034 -0.000003 0.000002 -0.000000 -6.914886 0.000003 0.000004 0.000004 0.000003 -22.106133 -6.096205 -0.000004 0.000014 -0.000080 -0.000033 -0.000035 -1.749921 -0.000018 0.000026 0.000001 0.000001 -0.000002 -0.699980 -1.166626 -0.466649 0.000008 -0.000000 0.000001 0.788260 -1.313776 4.256728 -175.693748 -60.766595 4.645715 3.915170 0.000032 -0.000027 -0.000004 0.000001 0.000004 6.914909 -0.000031 -0.000001 0.000003 0.000004 19.871477 6.096212 0.000073 -0.000001 -0.000028 0.000029 -0.000017 1.749932 0.000005 0.000027 0.000000 0.000000 0.000001 0.699945 -1.166603 -0.466627 0.000026 -0.000006 -0.000023 -2.338574 -0.252534 -0.551511 29.025589 -5.949245 -2.016536 0.000017 -0.000021 -10.744971 8.881997 2.674100 -1.474143 -0.000020 0.000051 -10.930836 0.000024 -0.000005 -0.000002 -0.000000 -4.087270 -1.487643 0.000003 0.000001 -0.000004 2.338573 -0.252532 -0.551450 24.978714 1.275659 -1.736704 -0.000006 -0.000034 -10.744917 8.970459 0.532271 -0.383566 -0.000010 -0.000001 -10.930874 0.000051 -0.000004 -0.000003 -0.000013 -4.087243 -1.487653 -0.000002 -0.000000 0.000000 
-0.000009 26.560289 40.145020 -17.407313 3.340375 -12.622888 -0.000017 0.900098 1.860704 28.812378 -0.407375 -2.074119 0.000001 0.400279 2.270314 -0.000004 -0.000001 0.000004 0.000017 0.200875 2.296541 0.000002 -0.000000 0.000003 0.000028 -0.000009 2.305321 -0.000050 0.000001 0.812797 -0.000010 -0.864467 6.051468 0.406952 -6.201946 179.585795 0.000015 -0.550447 3.121712 -0.000001 0.000000 -0.000003 -0.788277 -1.313736 4.256768 -132.461383 58.457062 -45.271556 -3.915084 0.000003 -0.000031 -0.000001 0.000002 -0.000001 -6.914884 0.000002 0.000001 0.000003 0.000002 -23.172945 -6.096201 -0.000009 0.000017 -0.000077 -0.000035 -0.000027 -1.749921 -0.000015 0.000019 -0.000001 0.000002 0.000002 -0.699977 -1.166624 -0.466655 0.000003 -0.000002 0.000004 0.788261 -1.313771 4.256737 -180.981285 -59.417810 -0.276388 3.915173 0.000031 -0.000031 -0.000003 -0.000002 0.000003 6.914906 -0.000030 -0.000012 0.000007 0.000012 21.928333 6.096209 0.000070 -0.000002 -0.000026 0.000025 -0.000013 1.749931 0.000004 0.000030 -0.000000 -0.000000 0.000000 0.699944 -1.166603 -0.466626 0.000026 -0.000006 -0.000023 -2.338573 -0.252537 -0.551507 29.076289 -6.015281 -2.113961 0.000017 -0.000015 -10.744965 9.236359 2.729424 -1.569376 -0.000020 0.000054 -10.930835 0.000015 -0.000008 -0.000001 0.000001 -4.087262 -1.487642 0.000002 0.000001 -0.000006 2.338573 -0.252535 -0.551450 25.448233 1.308645 -1.847989 -0.000005 -0.000032 -10.744919 9.077052 0.021949 -0.407591 -0.000010 0.000000 -10.930873 0.000053 -0.000004 -0.000002 -0.000014 -4.087237 -1.487651 -0.000001 -0.000001 -0.000001 
-0.000012 26.560287 40.145035 -17.612418 3.277378 -12.757790 -0.000017 0.900101 1.860702 28.853649 -0.490477 -2.265140 0.000001 0.400276 2.270306 -0.000006 -0.000001 0.000003 0.000018 0.200870 2.296541 0.000003 -0.000000 0.000005 0.000027 -0.000007 2.305325 -0.000051 0.000002 1.223153 -0.000008 -0.864471 6.051463 0.199151 -5.643662 179.450749 0.000015 -0.550450 3.121716 -0.000001 0.000000 -0.000003 -0.788278 -1.313739 4.256761 -134.770164 57.531674 -43.854654 -3.915072 -0.000008 -0.000034 -0.000001 0.000001 -0.000000 -6.914884 0.000001 0.000000 0.000003 0.000002 -23.871328 -6.096204 -0.000007 0.000011 -0.000084 -0.000031 -0.000035 -1.749923 -0.000016 0.000027 -0.000002 0.000004 -0.000001 -0.699982 -1.166624 -0.466652 0.000005 -0.000001 0.000001 0.788264 -1.313776 4.256733 -180.127224 -58.136562 0.501415 3.915172 0.000032 -0.000027 -0.000001 -0.000003 0.000002 6.914907 -0.000022 -0.000010 0.000004 0.000014 24.466153 6.096210 0.000071 -0.000007 -0.000030 0.000027 -0.000016 1.749931 0.000003 0.000028 -0.000003 0.000000 -0.000000 0.699946 -1.166605 -0.466631 0.000025 -0.000008 -0.000023 -2.338573 -0.252532 -0.551515 29.010890 -5.785296 -2.300648 0.000016 -0.000017 -10.744964 9.933811 3.075756 -1.704745 -0.000020 0.000061 -10.930835 0.000015 -0.000007 0.000001 -0.000001 -4.087271 -1.487640 0.000002 0.000001 -0.000001 2.338573 -0.252529 -0.551452 25.575524 1.646728 -2.023582 -0.000006 -0.000035 -10.744918 9.416111 0.018033 -0.423916 -0.000010 0.000005 -10.930872 0.000050 -0.000004 -0.000002 -0.000013 -4.087239 -1.487651 0.000002 0.000000 -0.000001 
-0.000015 26.560286 40.145035 -18.096540 3.040601 -13.100438 -0.000017 0.900099 1.860702 29.275021 0.155334 -2.524117 0.000001 0.400276 2.270315 -0.000006 -0.000001 0.000006 0.000019 0.200869 2.296532 0.000001 -0.000001 0.000002 0.000026 -0.000007 2.305317 -0.000049 0.000001 1.093812 -0.000010 -0.864467 6.051467 0.537942 -5.698347 179.735786 0.000014 -0.550450 3.121716 -0.000001 -0.000000 -0.000004 -0.788277 -1.313736 4.256761 -136.853522 58.008100 -42.529139 -3.915073 -0.000007 -0.000038 -0.000001 -0.000002 -0.000001 -6.914881 0.000003 0.000000 0.000002 -0.000001 -25.084155 -6.096202 -0.000006 0.000015 -0.000086 -0.000031 -0.000035 -1.749920 -0.000018 0.000022 -0.000002 0.000004 0.000001 -0.699976 -1.166629 -0.466653 0.000005 0.000003 0.000002 0.788260 -1.313772 4.256732 -181.588475 -57.460237 -0.275281 3.915169 0.000031 -0.000023 -0.000002 -0.000002 0.000003 6.914907 -0.000030 -0.000003 0.000004 0.000019 25.803454 6.096208 0.000073 -0.000005 -0.000025 0.000026 -0.000015 1.749934 0.000003 0.000023 0.000001 -0.000004 0.000003 0.699948 -1.166605 -0.466635 0.000026 -0.000011 -0.000021 -2.338573 -0.252534 -0.551510 29.329799 -5.046715 -2.554016 0.000017 -0.000017 -10.744964 10.459352 2.952257 -1.731414 -0.000018 0.000056 -10.930836 0.000020 -0.000005 -0.000001 0.000002 -4.087265 -1.487643 0.000002 0.000002 -0.000002 2.338572 -0.252528 -0.551454 26.050830 2.148660 -2.264080 -0.000006 -0.000034 -10.744911 9.657074 0.160943 -0.418353 -0.000010 0.000004 -10.930874 0.000053 -0.000005 -0.000002 -0.000012 -4.087242 -1.487651 0.000000 0.000001 -0.000002 
-0.000018 26.560284 40.145020 -18.670100 2.836638 -13.265024 -0.000017 0.900095 1.860703 29.582751 0.633706 -2.667229 0.000001 0.400275 2.270315 -0.000006 -0.000001 0.000007 0.000017 0.200877 2.296534 0.000001 -0.000000 0.000004 0.000026 -0.000005 2.305314 -0.000053 0.000001 0.802653 -0.000008 -0.864462 6.051460 0.749447 -5.599124 179.864412 0.000014 -0.550451 3.121719 0.000001 0.000000 -0.000006 -0.788278 -1.313731 4.256759 -136.458710 57.528696 -43.629599 -3.915069 -0.000003 -0.000034 -0.000000 -0.000002 0.000001 -6.914890 0.000006 0.000003 0.000003 -0.000003 -26.640089 -6.096195 -0.000007 0.000010 -0.000081 -0.000035 -0.000032 -1.749924 -0.000015 0.000023 -0.000000 0.000002 0.000001 -0.699981 -1.166625 -0.466653 0.000006 0.000001 0.000005 0.788262 -1.313765 4.256729 -182.025334 -57.462866 0.118836 3.915172 0.000030 -0.000023 -0.000001 -0.000004 0.000003 6.914920 -0.000023 -0.000010 0.000006 0.000014 26.710262 6.096202 0.000072 -0.000013 -0.000026 0.000029 -0.000017 1.749936 0.000003 0.000030 -0.000005 0.000002 -0.000001 0.699948 -1.166601 -0.466624 0.000023 -0.000005 -0.000027 -2.338574 -0.252539 -0.551513 29.454494 -4.404030 -2.681435 0.000018 -0.000016 -10.744963 11.112202 2.905971 -1.753272 -0.000019 0.000061 -10.930836 0.000020 -0.000006 -0.000000 -0.000001 -4.087263 -1.487642 0.000002 0.000001 -0.000007 2.338573 -0.252535 -0.551451 26.627194 2.768345 -2.418424 -0.000006 -0.000034 -10.744919 9.470100 0.161316 -0.340292 -0.000011 0.000009 -10.930875 0.000051 -0.000003 0.000001 -0.000012 -4.087240 -1.487650 0.000001 0.000001 -0.000003 
